<svg xmlns="http://www.w3.org/2000/svg" width="1429" height="1100" viewBox="0 0 1429 1100" role="img" aria-labelledby="title description">
<title id="title">Drum kit</title>
<desc id="description">Top-down line drawing of a drum kit with cymbals, toms, snare, kick pedal, and ride-cymbal stand.</desc>
<g transform="translate(0.000000,1100.000000) scale(0.100000,-0.100000)"
fill="currentColor" stroke="none">
<path d="M7545 9663 c-121 -15 -324 -47 -392 -63 -72 -15 -84 -16 -94 -3 -36
42 -133 57 -189 28 -18 -9 -32 -27 -36 -43 -4 -15 -8 -30 -10 -33 -2 -4 -43 2
-91 13 -127 27 -380 35 -503 14 -430 -70 -769 -311 -946 -670 -29 -61 -57
-125 -60 -143 -4 -22 -16 -39 -38 -53 -18 -11 -39 -32 -46 -47 -16 -35 -25
-232 -15 -350 7 -82 9 -90 40 -119 37 -35 47 -72 65 -249 24 -239 66 -395 155
-580 47 -97 64 -122 149 -209 91 -95 96 -102 96 -143 0 -38 4 -46 33 -63 38
-23 84 -26 106 -6 14 13 26 10 94 -19 42 -19 119 -46 170 -61 50 -14 96 -30
100 -34 8 -7 -20 -480 -28 -489 -2 -2 -55 19 -117 47 -127 56 -284 106 -396
128 -101 19 -353 26 -509 15 -216 -17 -504 -114 -698 -236 -226 -142 -297
-202 -395 -337 -35 -47 -61 -75 -64 -67 -106 359 -201 526 -419 735 -310 299
-717 456 -1187 457 -333 1 -635 -70 -945 -223 -579 -285 -962 -770 -1096
-1390 -15 -69 -22 -147 -26 -285 -5 -164 -2 -207 16 -314 131 -766 788 -1291
1616 -1291 318 0 596 68 903 221 78 40 144 70 146 68 6 -8 152 -284 164 -311
17 -40 -13 -107 -57 -126 -59 -26 -50 -101 14 -128 20 -8 33 -19 30 -23 -10
-18 -166 -720 -184 -832 -6 -33 -26 -94 -45 -137 -19 -42 -42 -102 -50 -133
-23 -80 -91 -422 -116 -585 -12 -76 -30 -158 -40 -180 -10 -23 -28 -87 -40
-143 l-22 -102 22 -24 c13 -13 40 -36 61 -51 l38 -26 50 27 c27 15 64 39 81
54 30 25 32 31 31 86 -1 70 -17 163 -31 180 -7 8 18 121 81 361 87 331 92 355
93 458 1 88 4 110 16 114 8 2 106 95 217 205 111 111 204 199 206 197 2 -3 22
-38 45 -77 46 -79 70 -98 110 -88 38 9 158 90 177 119 16 25 15 29 -50 160
-64 132 -90 166 -127 166 -12 0 -30 25 -57 78 -59 118 -93 204 -84 213 17 17
101 -37 405 -260 l315 -231 12 -52 c20 -91 54 -149 312 -539 l251 -378 4 -76
c4 -83 14 -108 74 -183 53 -68 85 -70 159 -12 53 42 71 67 71 98 0 31 -124
207 -148 210 -26 4 -38 24 -267 437 -98 176 -201 356 -230 400 -61 93 -162
216 -220 266 -49 43 -329 261 -448 349 -48 36 -104 77 -123 92 -34 26 -66 39
-126 52 -17 4 -39 23 -58 51 -22 32 -49 54 -89 75 -44 21 -61 37 -71 62 -8 18
-45 96 -82 173 -37 77 -68 144 -68 150 0 6 49 54 108 106 133 118 279 286 383
442 44 65 81 112 83 105 12 -42 43 -123 71 -189 30 -68 57 -152 131 -405 13
-45 35 -108 49 -140 l26 -59 -41 -38 c-22 -21 -40 -45 -40 -54 0 -8 14 -42 32
-74 40 -73 73 -90 125 -65 20 9 39 13 42 9 4 -4 27 -35 52 -67 73 -99 257
-251 398 -330 74 -43 264 -118 338 -136 34 -8 60 -21 77 -41 15 -16 38 -34 51
-39 l23 -9 -39 -93 c-78 -185 -93 -213 -131 -246 -41 -36 -128 -169 -128 -196
0 -52 67 -116 122 -116 50 0 77 18 101 67 24 47 33 82 58 208 14 73 110 291
151 343 43 54 68 63 197 73 299 24 561 105 757 235 32 22 64 43 70 47 7 4 34
-15 65 -46 30 -28 85 -70 122 -91 52 -31 93 -68 176 -160 126 -142 141 -163
141 -195 0 -22 3 -23 36 -18 20 3 50 17 68 30 l32 25 39 -29 c21 -16 50 -29
64 -29 24 0 24 1 -14 41 -22 22 -61 51 -86 64 -26 13 -62 43 -80 67 -95 120
-246 283 -288 308 -64 40 -91 79 -91 132 0 39 8 53 82 143 228 281 329 529
363 901 7 71 7 72 45 89 56 25 64 54 56 186 -6 103 -5 110 11 105 40 -12 286
-57 398 -74 l120 -18 6 -64 c4 -36 11 -78 18 -93 7 -18 11 -100 11 -218 0
-112 4 -198 10 -210 6 -11 21 -19 36 -19 13 0 27 -6 29 -13 2 -6 9 -66 15
-132 6 -66 28 -248 48 -405 35 -278 36 -293 37 -625 0 -306 2 -343 17 -367 23
-35 60 -40 262 -36 l159 3 21 28 c21 28 21 36 18 365 -2 196 1 371 7 417 55
423 70 554 76 640 7 93 9 102 36 127 l29 27 0 208 c0 166 3 213 14 229 8 12
16 50 18 85 l3 63 135 27 c176 35 307 69 454 118 66 22 121 39 123 38 1 -2 -7
-32 -19 -67 -15 -47 -21 -93 -22 -168 -1 -102 -1 -104 28 -129 l29 -24 -7
-107 c-15 -228 -33 -355 -59 -402 -14 -25 -28 -61 -31 -80 -6 -35 -7 -35 -57
-35 -40 0 -55 -5 -69 -22 -35 -43 -37 -157 -3 -195 8 -9 36 -19 62 -23 82 -11
78 21 47 -400 -15 -207 -30 -401 -33 -431 -5 -50 -4 -54 15 -54 25 0 25 -2 48
300 9 118 19 217 21 220 8 8 -4 -356 -17 -529 -8 -109 -9 -156 -1 -164 6 -6
14 -8 17 -4 7 6 25 170 41 367 l8 95 67 -138 c37 -76 83 -164 103 -196 19 -32
35 -71 35 -86 0 -40 42 -90 102 -120 28 -14 76 -48 107 -74 252 -218 574 -354
894 -378 67 -5 87 -11 112 -31 25 -21 37 -24 84 -20 43 4 59 10 75 30 16 20
34 28 76 33 75 9 228 50 317 86 109 43 178 80 278 148 50 34 93 61 97 61 4 0
0 -19 -8 -42 -8 -23 -58 -192 -110 -375 l-96 -333 10 -217 c8 -199 7 -220 -8
-238 -39 -45 -70 -139 -70 -212 0 -51 30 -79 96 -89 105 -15 150 32 139 146
-4 36 -13 92 -21 125 -8 34 -16 150 -20 270 -6 203 -5 213 19 300 51 184 169
593 198 686 29 93 30 96 60 96 43 0 79 31 116 99 38 69 41 104 12 130 -32 29
-40 50 -30 76 7 19 17 24 46 25 46 1 72 24 101 91 33 74 31 96 -15 144 l-39
39 15 47 c16 49 67 193 148 417 26 72 51 134 56 140 5 5 30 9 55 10 45 0 45 0
40 -30 -3 -16 -8 -61 -12 -100 -5 -49 -21 -106 -55 -192 -44 -110 -58 -164
-136 -559 -80 -404 -88 -439 -113 -464 -41 -42 -89 -212 -76 -266 9 -32 58
-54 126 -54 43 0 56 5 79 28 36 36 48 127 30 236 -10 68 -10 82 10 158 70 262
119 445 168 623 30 110 60 217 65 238 10 36 12 37 54 37 109 0 201 41 219 97
7 22 57 71 174 169 90 77 196 167 235 201 l71 63 23 -28 c13 -15 43 -50 67
-79 29 -33 54 -77 71 -125 26 -72 44 -100 235 -363 84 -117 87 -122 94 -190 7
-79 31 -135 75 -182 44 -47 83 -45 150 8 56 45 74 77 61 112 -17 43 -112 168
-135 177 -16 6 -61 74 -147 226 -94 163 -144 239 -204 309 -44 51 -151 198
-238 327 -182 271 -209 305 -286 357 -90 62 -159 128 -166 162 -4 16 -18 37
-31 45 -13 9 -24 26 -24 37 0 12 -20 39 -46 63 l-45 42 7 149 c5 121 10 152
24 168 24 27 28 44 35 166 7 104 7 105 -20 138 -27 31 -28 35 -23 128 6 104
11 113 65 113 17 0 88 11 157 25 411 82 767 290 1046 611 637 736 654 1801 40
2509 -239 275 -584 474 -975 562 -92 21 -146 26 -329 30 -246 6 -336 -2 -520
-48 -617 -154 -1106 -577 -1334 -1154 -22 -55 -42 -107 -46 -115 -3 -8 -3 3 0
24 13 89 24 215 24 283 0 87 -25 160 -69 206 -17 18 -55 83 -86 145 -30 62
-77 145 -104 186 -60 89 -199 232 -296 304 -141 105 -362 201 -546 237 -127
24 -392 30 -514 12 -59 -9 -104 -12 -109 -7 -5 5 -16 30 -25 56 -12 37 -23 50
-44 57 -37 12 -74 2 -102 -29 -23 -25 -24 -25 -82 -10 -219 55 -422 76 -723
75 -140 -1 -268 -4 -285 -6z m695 -58 c111 -15 274 -46 334 -63 61 -17 61 -83
1 -108 -20 -8 -67 -30 -105 -48 l-70 -35 -118 15 c-268 34 -687 29 -953 -11
l-94 -14 -65 41 c-36 23 -75 47 -87 55 -34 20 -33 90 0 102 50 19 345 68 512
85 91 9 535 -4 645 -19z m-1239 -15 c15 -9 19 -22 19 -65 0 -30 -2 -55 -5 -55
-3 0 -34 12 -69 26 -51 20 -66 31 -71 52 -5 19 -2 30 11 39 21 16 88 17 115 3z
m1726 2 c7 -5 16 -29 19 -54 6 -44 6 -45 -26 -57 -56 -19 -60 -17 -53 42 8 70
26 91 60 69z m-2042 -67 c174 -36 372 -119 501 -211 190 -136 354 -369 409
-584 42 -164 49 -398 15 -550 -22 -105 -77 -249 -127 -335 -98 -169 -271 -345
-340 -345 -25 0 -83 -46 -83 -66 0 -7 -37 -31 -82 -53 -203 -96 -361 -127
-602 -118 -167 6 -240 19 -363 61 -132 45 -191 76 -198 103 -8 35 -53 73 -85
73 -105 0 -276 183 -399 425 -87 172 -121 368 -103 598 15 190 65 334 177 508
53 82 189 221 275 281 168 117 401 205 620 232 70 9 307 -3 385 -19z m2610
-35 c566 -65 1010 -446 1129 -968 20 -90 25 -397 7 -490 -53 -278 -239 -587
-455 -758 -139 -111 -372 -217 -567 -260 -106 -23 -413 -23 -530 -1 -393 77
-731 331 -907 682 -36 73 -74 178 -104 288 -20 73 -22 105 -22 287 0 189 3
213 27 302 105 392 377 690 760 832 224 84 438 111 662 86z m3364 -104 c379
-71 678 -224 932 -476 180 -179 273 -312 370 -529 107 -239 154 -468 153 -746
-1 -254 -37 -447 -128 -680 -309 -789 -1060 -1274 -1868 -1206 -501 42 -902
242 -1225 611 -291 331 -465 826 -438 1245 48 743 478 1368 1135 1649 178 76
329 116 565 150 68 10 423 -3 504 -18z m-4574 -46 c177 -13 245 -21 245 -30 0
-4 -27 -28 -61 -55 -155 -122 -252 -243 -362 -450 -119 -225 -126 -299 -97
-964 12 -286 27 -383 91 -574 73 -221 95 -258 255 -444 l42 -48 -302 3 c-334
4 -507 -7 -726 -44 -231 -40 -216 -39 -223 -15 -6 24 -62 51 -106 51 -46 0
-74 -30 -80 -86 l-6 -48 -95 -36 c-174 -66 -314 -143 -433 -238 -38 -30 -70
-52 -73 -50 -2 3 4 117 14 254 l18 249 109 -3 c61 -2 175 1 255 6 159 11 263
38 430 111 64 29 95 37 125 34 56 -5 102 24 111 72 4 25 28 60 81 118 88 96
137 166 187 263 79 155 105 254 131 499 20 180 49 318 75 355 29 41 39 103 40
235 0 172 -27 263 -83 284 -10 4 -34 42 -54 86 -20 44 -60 117 -89 162 -48 74
-166 221 -201 250 -20 16 -6 22 84 33 215 28 480 36 698 20z m-405 -708 c0
-56 -17 -25 -25 43 l-6 60 16 -34 c8 -18 15 -49 15 -69z m-2496 -45 c-4 -31
-10 -54 -14 -52 -5 3 -7 13 -5 23 2 9 7 34 10 56 9 58 16 37 9 -27z m5301 -98
c7 -54 -9 -24 -19 36 -4 28 -3 35 3 24 6 -9 13 -36 16 -60z m-5068 -797 c25
-36 85 -106 133 -155 l87 -90 -5 -63 c-4 -60 -3 -64 26 -93 43 -44 100 -44
136 0 14 17 26 37 26 45 0 19 0 19 83 -17 40 -17 124 -44 187 -61 102 -28 134
-32 288 -36 104 -2 206 1 253 8 96 14 261 62 348 101 35 16 65 29 67 29 2 0 4
-9 4 -20 0 -12 11 -32 25 -45 34 -35 76 -33 121 7 36 32 36 32 30 95 l-7 63
96 96 c89 90 235 288 235 320 0 7 4 16 10 19 6 4 8 -12 4 -42 -33 -280 -108
-439 -322 -683 l-40 -44 -20 41 c-26 50 -46 58 -86 35 -45 -26 -57 -57 -53
-130 l3 -64 -46 -23 c-77 -39 -245 -94 -343 -111 -135 -24 -345 -22 -475 5
-114 24 -241 67 -317 109 l-50 27 -5 64 c-4 47 -10 67 -23 75 -14 8 -20 8 -27
-4 -6 -9 -6 -18 0 -24 13 -13 13 -112 0 -137 -13 -23 -47 -25 -71 -4 -14 13
-15 23 -8 58 5 23 15 55 21 70 8 21 8 31 -1 40 -9 9 -16 7 -29 -11 l-18 -23
-60 63 c-155 163 -259 376 -298 607 -24 140 -20 145 30 52 25 -47 66 -114 91
-149z m5011 113 c-15 -70 -15 -443 1 -540 63 -402 253 -770 544 -1052 303
-294 666 -461 1090 -504 l117 -12 0 -93 c0 -85 -2 -94 -22 -108 -16 -12 -35
-14 -68 -10 -53 7 -65 -2 -75 -58 -6 -31 -3 -41 17 -60 13 -13 38 -30 55 -39
26 -14 31 -23 35 -66 3 -33 14 -62 31 -85 26 -33 27 -41 27 -151 0 -63 -3
-123 -6 -132 -9 -23 -63 -50 -69 -33 -2 7 -18 55 -35 107 -78 239 -239 484
-417 637 -268 228 -504 328 -926 392 -52 8 -74 16 -92 36 -21 22 -32 26 -84
26 -71 0 -107 -12 -132 -44 -14 -18 -33 -25 -75 -31 -164 -20 -350 -83 -530
-178 l-102 -54 -6 36 c-3 20 -6 64 -6 97 0 83 -14 151 -49 239 -29 72 -30 81
-33 256 l-3 181 45 18 c33 13 52 15 77 8 19 -5 43 -6 53 -3 36 11 78 55 85 88
5 23 37 61 112 135 142 140 240 293 298 465 13 41 39 141 55 223 31 150 78
342 87 357 11 18 11 0 1 -48z m-2497 -120 c61 -129 153 -259 257 -362 84 -82
84 -83 72 -117 -14 -43 2 -151 28 -186 29 -38 67 -38 102 0 16 18 35 49 41 70
l11 38 102 -49 c315 -149 711 -172 1043 -60 62 21 115 36 118 33 3 -3 5 -17 5
-32 0 -33 39 -94 64 -98 26 -5 75 18 88 42 6 11 15 57 18 101 7 79 8 80 50
115 158 128 262 235 356 366 l22 29 -10 -60 c-38 -250 -160 -488 -340 -667
-48 -49 -92 -88 -98 -88 -5 0 -10 10 -10 23 0 32 -37 87 -57 86 -10 0 -40 -11
-68 -24 l-50 -24 0 -92 0 -93 -80 -32 c-182 -74 -427 -112 -608 -93 -188 19
-389 78 -522 152 l-40 23 -3 100 -3 100 -32 20 c-70 42 -89 34 -122 -52 l-17
-44 -31 26 c-62 51 -167 180 -196 240 -38 78 -95 250 -127 379 -28 112 -46
406 -23 355 7 -14 34 -70 60 -125z m-2170 -246 c25 -25 22 -35 -14 -57 -26
-16 -28 -16 -49 5 -20 20 -20 25 -8 48 16 30 43 32 71 4z m1409 2 c0 -24 -25
-45 -45 -37 -22 8 -18 35 8 46 33 13 37 12 37 -9z m8 -95 c-4 -30 -53 -45 -75
-24 -25 26 -10 43 36 44 37 0 41 -3 39 -20z m-1407 -24 c-17 -32 -50 -34 -78
-6 -30 30 -26 39 10 23 21 -10 31 -9 49 3 26 18 34 9 19 -20z m2586 -138 c43
-32 45 -78 7 -124 -22 -26 -29 -29 -39 -18 -18 19 -35 129 -24 151 12 22 16
22 56 -9z m-1207 -56 c28 -62 26 -101 -6 -119 -23 -12 -27 -12 -40 6 -19 26
-18 119 2 139 21 22 23 21 44 -26z m2680 -23 c-7 -8 -24 -15 -39 -15 -25 1
-25 1 9 20 39 20 50 19 30 -5z m5 -84 c-3 -14 -15 -35 -26 -46 -17 -17 -21
-18 -34 -5 -8 9 -17 29 -21 46 l-6 31 47 0 c45 0 46 -1 40 -26z m-7215 -5
c187 -35 397 -106 530 -179 185 -102 415 -305 513 -454 110 -166 183 -340 224
-533 25 -118 25 -417 0 -545 -67 -342 -194 -617 -407 -885 -84 -105 -289 -306
-392 -383 -605 -453 -1379 -543 -1986 -231 -146 75 -251 153 -377 279 -215
215 -342 449 -407 748 -19 87 -22 132 -22 307 0 174 4 221 23 310 79 372 266
720 528 985 313 316 789 543 1246 595 109 13 429 4 527 -14z m5731 -206 c15
-8 19 -21 19 -60 0 -41 -4 -52 -24 -65 -48 -32 -85 17 -66 85 14 47 34 59 71
40z m1448 -7 c5 -10 14 -44 21 -76 13 -65 7 -81 -38 -92 -41 -10 -62 22 -62
100 0 54 3 63 23 73 32 15 45 14 56 -5z m-1671 -70 l84 -6 24 -39 c30 -47 65
-62 114 -50 30 7 45 4 110 -29 178 -88 377 -135 615 -146 118 -5 136 -9 190
-36 90 -44 175 -108 246 -185 109 -118 131 -176 144 -377 l6 -100 -24 70 c-34
102 -50 128 -128 209 -222 235 -664 405 -1229 475 -399 49 -831 32 -1226 -49
-53 -11 -99 -20 -102 -20 -6 0 4 190 11 196 14 14 382 73 542 87 76 7 540 7
623 0z m-1248 -14 l33 -12 -7 -141 c-5 -114 -10 -143 -23 -153 -20 -15 -79
-17 -88 -4 -3 5 -2 73 1 151 9 171 15 183 84 159z m-130 -232 l0 -94 -67 -28
c-96 -40 -259 -121 -315 -157 l-48 -30 -49 36 c-78 57 -80 62 -40 97 94 81
305 201 439 248 83 30 80 33 80 -72z m2805 36 c4 -10 10 -74 12 -143 l5 -125
-48 47 c-27 26 -89 74 -138 107 -53 36 -83 62 -75 65 8 3 59 17 113 31 55 14
102 28 105 30 9 10 19 5 26 -12z m-4035 -44 c111 -13 290 -62 409 -114 283
-121 532 -347 681 -620 168 -307 202 -712 89 -1050 -160 -479 -528 -834 -1024
-988 -551 -172 -1131 -46 -1527 331 -185 177 -311 380 -387 625 -20 65 -20 70
-4 100 l16 32 17 -60 c137 -476 494 -825 1000 -976 212 -64 549 -65 790 -4
269 68 493 191 688 379 179 173 299 360 376 586 55 163 69 265 63 465 -5 189
-27 296 -89 437 -190 430 -560 710 -1063 804 -152 29 -443 27 -586 -4 -341
-72 -620 -225 -841 -461 -42 -45 -99 -115 -126 -156 l-50 -74 -7 36 c-5 30 -1
43 28 87 117 175 334 360 552 469 295 147 619 198 995 156z m2683 6 c366 -39
687 -122 944 -245 152 -73 229 -125 319 -214 91 -92 109 -129 109 -226 -1 -87
-18 -127 -96 -226 -187 -236 -526 -414 -979 -514 -165 -36 -234 -39 -250 -9
-9 16 -19 19 -48 17 -32 -3 -38 -7 -42 -33 -5 -27 -9 -30 -45 -33 -47 -3 -135
31 -135 53 0 8 6 15 14 15 35 0 36 102 1 154 -14 21 -25 51 -25 71 0 41 -22
65 -59 65 -39 0 -58 -19 -65 -69 -4 -24 -13 -56 -21 -72 -8 -15 -15 -50 -15
-78 0 -39 4 -53 21 -65 26 -18 20 -29 -32 -62 -31 -19 -51 -24 -87 -22 -44 3
-48 5 -58 38 -10 30 -16 35 -47 38 -27 2 -38 -2 -46 -17 -24 -44 -147 -38
-406 20 -215 49 -331 89 -339 118 -2 9 -7 45 -11 81 -15 146 -77 351 -147 480
-62 113 -112 184 -210 297 l-88 102 46 31 c97 68 323 160 424 175 25 4 66 17
92 31 69 35 273 73 548 103 131 15 583 12 733 -4z m-2797 -85 c631 -51 1119
-453 1240 -1022 25 -116 25 -362 1 -478 -101 -479 -444 -874 -911 -1050 -548
-207 -1171 -79 -1568 322 -168 169 -298 403 -344 618 l-16 76 40 124 c70 214
96 345 108 550 4 69 13 127 22 145 59 118 234 313 375 419 244 182 567 295
873 304 28 1 109 -3 180 -8z m5364 -455 c405 -54 746 -231 990 -513 278 -321
398 -772 324 -1217 -64 -383 -269 -712 -568 -915 -154 -103 -373 -194 -549
-227 -115 -21 -376 -23 -502 -4 -581 88 -1073 504 -1255 1061 -49 149 -70 284
-70 453 0 211 28 363 99 534 230 559 889 915 1531 828z m1587 -372 c-6 -138
-12 -153 -67 -153 -58 0 -65 28 -61 248 l1 32 66 0 67 0 -6 -127z m-256 -133
c13 -8 19 -21 19 -46 l0 -35 -30 16 c-23 12 -30 22 -30 45 0 32 9 36 41 20z
m89 -9 c0 -25 56 -51 110 -51 33 0 48 6 71 29 16 16 29 24 30 18 3 -64 -4
-194 -13 -213 -22 -47 -132 -57 -187 -16 -25 18 -26 23 -29 136 -2 75 1 116 8
116 5 0 10 -8 10 -19z m-2919 -148 c-16 -27 -44 -83 -62 -125 l-34 -78 -92
-40 c-200 -88 -551 -187 -682 -192 l-66 -3 -3 71 -3 71 57 7 c84 10 281 59
422 105 127 42 353 146 432 199 25 17 48 31 52 31 4 1 -5 -20 -21 -46z m-1347
21 c3 -9 6 -38 6 -65 0 -35 -4 -49 -14 -49 -19 0 -28 41 -20 90 7 42 18 51 28
24z m4419 -366 c-5 -177 -7 -194 -25 -210 -24 -21 -38 -22 -73 -6 l-25 11 0
199 0 198 64 0 64 0 -5 -192z m-4403 141 c0 -14 -7 -19 -25 -19 -27 0 -35 26
-13 48 15 15 38 -3 38 -29z m-654 -78 c71 -12 141 -24 157 -27 27 -5 27 -7 27
-80 0 -50 -4 -74 -12 -74 -31 0 -344 53 -428 73 l-95 22 -6 55 c-3 30 -9 69
-13 87 l-7 31 124 -33 c68 -18 182 -42 253 -54z m-423 54 c17 -16 32 -89 22
-105 -3 -5 -24 -10 -46 -10 l-39 0 6 43 c10 73 14 87 28 87 8 0 21 -7 29 -15z
m747 -211 l0 -185 -47 3 -48 3 -3 95 c-2 52 0 123 3 156 6 58 8 62 35 68 16 3
34 14 40 26 6 11 13 20 15 20 3 0 5 -83 5 -186z m610 161 c7 -18 16 -24 32
-22 23 2 23 2 26 -161 l3 -163 -38 3 -38 3 -3 183 c-1 100 0 182 3 182 3 0 10
-11 15 -25z m-220 -23 c49 -24 72 -70 74 -145 2 -114 -60 -187 -158 -187 -61
0 -107 25 -133 72 -21 40 -22 161 -1 204 32 68 140 96 218 56z m-276 -82 c-1
-73 -11 -100 -38 -100 -19 0 -24 7 -30 38 -15 92 -7 113 44 109 23 -2 25 -6
24 -47z m434 -22 c2 -57 0 -68 -16 -77 -18 -9 -20 -5 -25 52 -3 34 -9 70 -13
80 -6 16 -2 18 22 15 28 -3 29 -4 32 -70z m959 2 c-7 -39 -14 -50 -26 -48 -12
3 -16 14 -14 47 2 49 19 77 38 61 9 -8 10 -23 2 -60z m-2227 -55 c0 -77 -12
-111 -40 -120 -34 -11 -41 6 -43 96 l-2 84 35 6 c19 3 38 3 43 1 4 -2 7 -32 7
-67z m2189 -44 c10 -6 12 -26 9 -74 -4 -69 -10 -83 -27 -72 -12 7 -15 155 -3
155 4 0 13 -4 21 -9z m3101 -31 c0 -51 33 -75 101 -75 58 0 99 32 99 78 0 35
19 32 38 -5 19 -39 -3 -96 -48 -122 -47 -28 -143 -28 -191 0 -29 17 -35 28
-43 72 -8 44 -6 55 9 72 27 29 35 25 35 -20z m-4445 -27 c3 -15 14 -38 24 -52
43 -60 34 -139 -24 -226 -34 -50 -75 -166 -75 -211 0 -17 -6 -24 -20 -24 -19
0 -20 7 -20 203 1 161 4 206 15 221 8 11 18 41 21 68 6 46 8 48 39 48 27 0 34
-5 40 -27z m425 -28 c3 -27 11 -60 18 -72 8 -15 12 -79 12 -200 0 -175 -10
-247 -24 -165 -12 77 -48 152 -104 214 -51 58 -54 64 -49 105 3 31 14 54 41
83 20 23 41 52 46 66 7 19 16 25 33 22 19 -3 23 -11 27 -53z m-1388 -135 c0
-174 -38 -317 -143 -529 -69 -140 -134 -241 -229 -356 l-55 -66 -12 28 c-8 19
-11 85 -8 206 l3 177 63 67 c141 151 270 363 335 550 26 75 30 80 37 55 5 -15
8 -74 9 -132z m118 92 c0 -10 -5 -23 -12 -30 -15 -15 -57 -16 -59 -2 -5 29 -2
33 20 37 14 2 27 6 30 8 10 11 21 4 21 -13z m5584 -29 c-8 -44 -12 -53 -25
-53 -13 0 -11 47 3 70 20 31 30 23 22 -17z m-4905 -248 c0 -91 -3 -154 -8
-145 -12 21 -23 301 -14 353 l7 42 7 -45 c4 -25 8 -117 8 -205z m683 -22 l-9
-138 0 205 c0 166 1 192 9 138 5 -40 5 -121 0 -205z m-394 220 c-4 -52 -28
-56 -28 -4 0 30 4 41 16 41 11 0 14 -9 12 -37z m110 3 c4 -36 -6 -46 -40 -39
-20 4 -28 11 -28 27 0 52 62 63 68 12z m4227 -1 c52 -19 127 -19 171 0 l35 14
-3 -31 c-4 -45 -54 -73 -130 -73 -71 0 -111 26 -116 73 -2 18 -2 32 0 32 2 0
21 -7 43 -15z m383 -44 c31 -27 76 -60 99 -75 55 -34 96 -86 275 -354 109
-163 147 -228 143 -243 -11 -33 -37 -7 -151 148 -59 82 -134 184 -167 228 -33
44 -70 103 -83 131 -17 36 -49 73 -104 124 -71 64 -93 90 -74 90 3 0 31 -22
62 -49z m-44 -49 c28 -26 61 -55 73 -63 12 -8 31 -37 43 -63 11 -27 62 -105
112 -174 89 -121 91 -125 72 -141 -38 -31 -278 -237 -336 -288 l-59 -52 -40
27 -41 27 6 349 c4 305 7 351 21 359 9 4 29 22 46 38 16 16 35 29 41 29 6 0
34 -22 62 -48z m-4557 -3 c93 -35 153 -169 153 -344 0 -95 -10 -187 -52 -480
-22 -155 -31 -261 -32 -360 -1 -137 0 -141 32 -214 22 -50 32 -88 32 -123 0
-48 -1 -49 -27 -46 -23 2 -29 9 -33 38 -7 51 -35 62 -153 58 -108 -4 -117 -9
-117 -66 0 -31 -2 -33 -32 -30 -32 3 -33 4 -30 48 2 24 18 79 37 121 51 113
50 169 -21 694 -33 250 -38 485 -11 555 25 65 63 118 100 140 36 22 109 26
154 9z m4348 -281 c-9 -413 -13 -501 -27 -510 -21 -13 -56 -9 -74 9 -15 15
-16 33 -10 152 3 74 6 237 6 363 l0 228 55 0 54 0 -4 -242z m-3206 97 c27
-125 74 -263 126 -373 42 -89 145 -253 198 -317 l24 -29 -26 -40 c-24 -36 -26
-49 -26 -137 0 -108 14 -139 64 -139 36 0 97 46 111 83 32 87 24 84 78 37 71
-63 215 -156 327 -210 173 -85 372 -140 564 -157 l84 -8 2 -92 c1 -66 6 -98
18 -117 19 -28 53 -34 87 -16 27 14 71 93 96 170 l21 65 59 7 c316 40 683 240
885 482 29 36 55 64 56 63 1 -2 -29 -90 -68 -197 -43 -121 -79 -204 -94 -220
-14 -15 -38 -70 -60 -137 l-36 -111 -24 24 c-31 31 -41 30 -79 -8 -41 -41 -77
-134 -83 -216 -6 -63 -6 -63 -72 -123 -165 -150 -419 -278 -620 -313 -86 -14
-89 -13 -90 57 -1 39 -15 76 -35 89 -21 14 -76 8 -94 -10 -11 -11 -27 -49 -37
-85 l-18 -67 -71 0 c-253 0 -581 126 -815 314 -112 91 -114 93 -102 167 6 35
11 85 11 111 0 39 -4 50 -31 72 -17 14 -35 26 -40 26 -5 0 -30 -20 -56 -45
-25 -25 -47 -44 -49 -42 -27 31 -93 153 -129 238 -76 181 -115 363 -115 543
l0 92 -97 19 -98 20 -6 39 c-4 22 -2 54 3 73 8 30 13 33 46 33 23 0 51 -9 74
-25 69 -47 73 -41 82 120 8 131 29 385 32 382 2 -1 12 -43 23 -92z m-4958
-331 c182 -154 394 -267 602 -319 149 -38 134 -29 142 -88 4 -28 19 -88 33
-132 25 -77 35 -185 19 -201 -11 -11 -146 30 -254 77 -175 77 -360 209 -467
335 -49 57 -71 94 -96 160 -23 60 -43 96 -71 124 -41 41 -124 199 -136 260 -6
32 -1 28 68 -55 42 -50 113 -122 160 -161z m7995 144 c-4 -35 -11 -67 -16 -71
-10 -12 -44 -5 -42 8 20 109 25 125 45 125 18 0 19 -4 13 -62z m-4506 45 c1
-31 32 -306 50 -433 45 -339 59 -524 43 -567 -4 -10 -19 85 -34 217 -15 129
-36 312 -48 405 -28 235 -37 385 -22 385 6 0 11 -3 11 -7z m530 -217 c-6 -67
-22 -206 -36 -311 -14 -104 -31 -248 -38 -320 -10 -97 -15 -123 -21 -101 -11
39 0 173 35 421 17 116 37 271 45 345 18 167 17 162 22 121 3 -19 0 -88 -7
-155z m-1501 62 c-64 -147 -151 -281 -263 -403 -70 -78 -54 -39 26 61 90 112
172 238 223 342 21 45 41 80 43 78 2 -3 -11 -37 -29 -78z m6217 -17 c-4 -5
-48 -45 -99 -88 -51 -42 -147 -123 -214 -180 -67 -57 -125 -103 -128 -103 -4
0 -5 11 -3 25 2 18 58 73 212 205 181 156 212 178 224 166 8 -8 11 -19 8 -25z
m-3879 -38 c-2 -16 -4 -5 -4 22 0 28 2 40 4 28 2 -13 2 -35 0 -50z m3086 -36
c-35 -97 -44 -111 -68 -93 -17 12 -17 16 10 89 21 59 32 77 49 79 11 2 24 3
28 1 4 -2 -4 -36 -19 -76z m-8959 -19 c24 -51 73 -154 109 -229 35 -75 68
-146 71 -157 14 -43 -32 -88 -79 -76 -28 7 -61 62 -194 316 l-82 157 58 40
c32 22 62 40 66 40 5 1 28 -41 51 -91z m3139 61 c10 -38 -59 -89 -79 -58 -6
10 52 79 67 79 4 0 9 -9 12 -21z m5883 -196 c-3 -7 -11 -13 -18 -13 -11 0 -12
16 -7 73 3 39 10 86 15 102 7 24 10 12 12 -59 2 -49 1 -95 -2 -103z m-6001 40
c28 -73 30 -85 27 -193 -3 -90 -7 -119 -20 -134 -26 -28 -189 -121 -283 -161
-197 -85 -422 -128 -633 -123 l-120 3 -11 50 c-7 28 -20 68 -30 90 -14 33 -17
58 -12 139 3 54 10 103 15 108 5 5 58 11 118 14 294 13 616 104 829 233 44 27
82 50 85 50 3 1 19 -34 35 -76z m-2080 17 c36 -71 33 -94 -16 -126 -38 -23
-42 -24 -59 -9 -9 8 -26 34 -36 57 l-18 41 48 43 c26 24 50 44 52 44 2 0 15
-22 29 -50z m2195 -3 c-1 -30 -19 -67 -34 -67 -4 0 -15 19 -26 42 -18 41 -18
64 1 53 5 -4 17 -2 26 4 25 13 33 5 33 -32z m6975 -112 c35 -54 211 -359 239
-413 9 -18 14 -37 11 -42 -13 -21 -59 18 -119 99 -214 292 -244 339 -266 419
-9 34 -8 47 1 58 10 13 19 9 57 -28 24 -24 59 -65 77 -93z m-6985 -25 c0 -16
-4 -30 -10 -30 -5 0 -10 6 -10 14 0 8 -3 21 -6 30 -4 11 -1 16 10 16 11 0 16
-9 16 -30z m5898 -30 c-5 -67 -8 -73 -32 -64 -22 8 -22 81 1 106 28 31 36 21
31 -42z m124 -32 c28 -1 57 6 72 15 38 25 46 21 46 -25 0 -83 -18 -106 -97
-122 l-32 -7 -3 53 c-2 44 -6 53 -23 56 -30 6 -43 21 -38 43 5 17 7 18 17 3 8
-10 28 -16 58 -16z m-7837 -220 c117 -77 243 -138 380 -184 61 -20 114 -40
118 -44 24 -22 -20 -14 -133 24 -228 77 -367 162 -530 324 l-105 105 90 -83
c50 -45 131 -109 180 -142z m555 202 c12 -8 9 -10 -12 -10 -15 0 -30 5 -33 10
-8 13 25 13 45 0z m1294 -17 c22 -44 38 -114 31 -140 -4 -19 -11 -24 -32 -21
-28 3 -34 15 -53 113 -9 43 -8 52 7 62 24 18 31 16 47 -14z m-2916 -26 c48
-51 67 -151 37 -195 -25 -35 -100 -73 -160 -81 -50 -7 -57 -5 -84 18 -31 28
-59 114 -53 164 5 37 12 34 43 -17 20 -32 36 -46 58 -51 47 -10 88 3 117 38
26 31 28 58 8 125 -8 28 7 28 34 -1z m1652 -114 c0 -60 -4 -114 -8 -121 -6 -8
-20 25 -40 90 -42 135 -42 138 8 138 l40 0 0 -107z m4526 -18 c-11 -19 -23
-35 -27 -35 -5 0 -20 -19 -35 -41 -33 -52 -44 -42 -51 43 -4 52 -1 74 16 113
l22 49 47 -47 47 -47 -19 -35z m2581 71 c-4 -24 -63 -254 -132 -512 -69 -258
-131 -491 -138 -519 -8 -30 -19 -50 -28 -50 -18 0 -22 -25 76 470 62 310 93
444 118 510 54 139 57 145 85 145 23 0 24 -2 19 -44z m-8595 -45 c49 -19 652
-482 663 -510 3 -8 -1 -21 -9 -29 -18 -19 -5 -27 -292 184 -236 174 -355 256
-398 275 -43 20 -49 89 -7 89 11 0 30 -4 43 -9z m2632 -58 c-47 -38 -212 -129
-304 -167 -130 -53 -297 -92 -450 -106 -131 -12 -300 -6 -300 10 0 13 59 20
185 20 147 0 310 26 451 71 102 32 287 121 384 183 59 38 84 30 34 -11z
m-3100 -9 c21 -21 20 -34 -2 -34 -21 0 -42 18 -42 37 0 18 25 16 44 -3z m3297
-40 c18 -19 56 -49 82 -66 27 -17 96 -87 160 -162 150 -174 174 -206 154 -206
-9 0 -80 70 -158 155 -103 113 -156 163 -198 186 -31 18 -75 50 -99 73 -41 40
-42 41 -20 48 39 11 43 9 79 -28z m2738 -224 c12 -30 54 -115 92 -189 72 -136
77 -176 8 -63 -62 104 -150 328 -163 417 -4 26 2 13 17 -35 14 -41 34 -100 46
-130z m-5625 10 c96 -204 103 -224 86 -245 -28 -33 -53 -14 -102 80 -26 50
-66 132 -89 184 l-41 93 28 24 c16 13 33 22 37 21 5 -1 41 -72 81 -157z m-363
-140 c-33 -129 -76 -309 -96 -400 -20 -91 -41 -171 -47 -177 -15 -18 -26 -16
-38 7 -8 14 -2 60 25 187 71 332 136 619 147 646 l11 29 29 -29 28 -29 -59
-234z m1938 276 c7 -8 13 -50 14 -93 l2 -78 -34 0 c-31 0 -36 4 -44 35 -23 90
21 186 62 136z m-1712 -161 c65 -132 66 -136 54 -175 -9 -30 -9 -50 -1 -81
l11 -40 -182 -187 c-100 -103 -185 -188 -189 -190 -10 -4 143 649 176 750 13
41 24 52 57 57 4 0 37 -60 74 -134z m10256 67 c26 -37 47 -75 47 -84 0 -18
-84 -88 -106 -88 -26 0 -82 83 -89 132 -7 44 -6 47 18 53 14 4 35 18 48 31 12
13 25 24 29 24 4 0 28 -30 53 -68z m-1835 -81 l32 -30 -16 -43 c-22 -63 -41
-88 -68 -88 -35 0 -49 23 -41 67 8 47 41 123 52 123 5 0 23 -13 41 -29z
m-6627 -58 c-16 -21 -65 -113 -107 -205 -45 -98 -83 -168 -91 -168 -11 0 -11
5 0 33 8 17 43 100 77 182 75 178 86 194 123 195 l28 0 -30 -37z m5653 -48
c-2 -36 -37 -114 -66 -145 -20 -22 -22 -22 -35 -4 -17 23 -18 155 -1 172 8 8
32 12 58 10 43 -3 45 -4 44 -33z m-7164 -10 c6 -8 10 -22 8 -32 -3 -14 -8 -11
-21 15 -18 32 -9 44 13 17z m4354 -11 c10 -4 16 -18 16 -39 0 -37 12 -45 72
-45 l40 0 -4 -100 c-5 -140 2 -135 -203 -135 -205 0 -199 -4 -203 135 l-4 99
48 3 c49 3 58 11 69 61 5 27 7 27 79 27 41 0 81 -3 90 -6z m-4524 -80 c0 -8 9
-23 20 -34 27 -27 80 -26 116 2 23 18 26 18 14 4 -54 -68 -170 -40 -170 40 0
8 5 12 10 9 6 -3 10 -13 10 -21z m8097 4 c6 -13 37 -51 68 -86 l58 -63 -19
-42 c-25 -55 -61 -97 -84 -97 -26 0 -130 87 -130 109 0 29 49 163 67 183 21
23 28 23 40 -4z m-2139 0 c22 -22 7 -158 -17 -158 -4 0 -18 12 -32 28 -52 57
-52 55 -13 100 39 46 44 48 62 30z m-5017 -209 c128 -208 392 -687 425 -769
18 -45 13 -60 -12 -39 -18 14 -395 578 -487 727 -65 104 -83 146 -96 217 -23
126 42 74 170 -136z m-691 127 c34 -63 34 -65 16 -84 -9 -11 -48 -36 -86 -56
-52 -28 -70 -33 -78 -23 -14 17 -62 115 -62 126 0 5 15 9 34 9 47 0 87 21 111
59 11 18 22 32 26 33 3 0 20 -29 39 -64z m5618 -68 c13 -22 18 -44 15 -65 -6
-39 -9 -40 -34 -10 -18 22 -24 62 -13 91 8 21 9 21 32 -16z m-4377 -128 c24 0
24 -5 -2 -84 -25 -75 -47 -99 -90 -98 -33 1 -54 14 -70 44 -11 20 15 74 69
145 l24 33 25 -20 c14 -11 34 -20 44 -20z m4566 -55 c222 -189 492 -301 811
-337 97 -10 112 -14 112 -30 0 -23 -20 -23 -185 1 -295 44 -579 177 -799 374
-38 34 -57 58 -52 65 8 14 15 10 113 -73z m1967 56 c14 -16 16 -26 8 -53 -152
-523 -244 -851 -248 -883 -3 -22 -1 -123 4 -225 4 -102 5 -198 2 -215 -6 -30
-6 -30 -13 10 -4 22 -10 135 -13 250 l-6 210 120 412 c130 450 133 469 55 400
-124 -111 -297 -209 -468 -266 -103 -34 -284 -76 -293 -67 -1 2 0 10 3 19 4
10 30 19 73 27 240 41 473 156 667 329 43 39 82 71 85 71 4 0 15 -9 24 -19z
m-901 -261 c12 -48 4 -195 -12 -214 -20 -24 -78 -21 -86 4 -6 19 20 185 36
228 14 36 51 26 62 -18z m1259 20 l38 0 0 -95 c0 -90 -1 -95 -25 -111 -19 -12
-37 -15 -72 -10 -26 3 -52 11 -57 16 -11 11 13 124 39 187 12 28 18 34 27 25
7 -7 29 -12 50 -12z m-8888 -138 c0 -98 -6 -128 -63 -347 -112 -431 -133 -493
-165 -482 -35 12 -25 108 44 457 61 304 94 422 137 489 14 22 16 22 31 7 14
-14 17 -37 16 -124z m2013 -455 c27 -41 43 -76 41 -90 -3 -20 -86 -87 -108
-87 -12 0 -89 111 -96 138 -5 18 4 34 42 75 57 62 58 62 121 -36z m-2204 -405
c34 16 35 16 41 -5 3 -12 9 -52 12 -89 6 -62 5 -68 -19 -90 -14 -13 -41 -32
-61 -42 l-35 -19 -36 27 c-40 31 -41 37 -20 138 22 104 19 100 54 81 27 -16
32 -16 64 -1z m8483 -209 c36 -5 44 -27 44 -114 0 -62 -27 -85 -90 -74 -54 9
-65 30 -49 102 16 79 29 105 48 97 9 -4 30 -9 47 -11z M6215 9484 c-278 -54
-519 -181 -688 -363 -113 -123 -206 -293 -248 -456 -32 -122 -32 -335 -1 -470
63 -275 235 -518 480 -682 240 -159 580 -226 884 -173 246 42 436 135 610 298
149 140 244 291 308 487 30 91 33 114 38 253 7 224 -17 341 -103 512 -129 256
-402 479 -685 558 -178 51 -440 67 -595 36z m365 -34 c273 -33 494 -137 676
-315 150 -147 223 -271 280 -475 29 -102 26 -366 -4 -480 -83 -304 -305 -568
-595 -705 -402 -191 -913 -133 -1242 141 -331 275 -470 672 -370 1059 19 75
90 224 146 307 101 150 288 298 475 375 217 91 415 119 634 93z M8894 9435
c-254 -46 -483 -159 -658 -325 -375 -355 -469 -892 -239 -1355 86 -173 225
-339 378 -454 116 -87 304 -174 458 -212 124 -31 142 -33 307 -33 107 0 198 5
235 13 309 67 491 164 696 370 207 209 314 436 339 718 21 240 -28 463 -147
668 -63 110 -116 176 -217 273 -182 175 -418 292 -675 336 -114 19 -373 20
-477 1z m506 -49 c426 -83 787 -394 919 -792 108 -327 42 -722 -170 -1004
-188 -250 -455 -414 -776 -476 -108 -21 -336 -24 -443 -5 -96 17 -259 70 -341
111 -287 144 -513 402 -613 701 -48 144 -59 226 -53 404 4 125 9 165 31 240
58 193 133 326 258 460 187 200 472 343 747 375 103 12 349 4 441 -14z M12180
8119 c-165 -28 -316 -156 -371 -316 -36 -106 -21 -273 34 -363 87 -143 239
-225 417 -223 198 3 357 101 439 273 35 72 36 79 36 186 0 107 -1 112 -38 186
-65 133 -181 221 -334 253 -76 16 -103 17 -183 4z m285 -83 c88 -44 150 -104
186 -181 103 -217 21 -444 -200 -553 -74 -36 -77 -37 -196 -37 -120 0 -122 0
-197 38 -92 45 -167 122 -200 207 -18 43 -22 76 -23 155 0 93 2 105 32 165
110 222 379 314 598 206z M12225 7983 c-12 -2 -40 -21 -63 -41 -37 -32 -44
-45 -56 -103 -27 -133 17 -219 118 -234 83 -13 174 40 192 112 10 39 -4 174
-21 199 -24 37 -125 77 -170 67z m74 -58 c2 -3 -1 -11 -7 -17 -7 -7 -12 -29
-12 -49 0 -21 -4 -41 -10 -44 -5 -3 -10 1 -10 9 0 8 -8 23 -19 33 -14 13 -17
27 -14 51 5 32 8 34 36 28 17 -3 33 -8 36 -11z m61 -40 c0 -9 -9 -15 -21 -15
-18 0 -19 2 -9 15 7 8 16 15 21 15 5 0 9 -7 9 -15z m-139 -77 c17 -41 58 -49
88 -19 11 11 29 24 40 30 18 10 20 7 26 -33 8 -52 -7 -89 -47 -119 -38 -28
-108 -28 -145 -1 -25 18 -28 28 -31 82 -3 53 0 62 20 76 30 22 32 21 49 -16z
M1341 6512 c-19 -19 -28 -36 -25 -48 3 -11 93 -138 200 -284 107 -146 203
-283 214 -306 27 -54 25 -93 -6 -135 -14 -19 -40 -61 -57 -94 -26 -51 -31 -74
-35 -152 -4 -86 -2 -96 25 -155 36 -75 88 -129 158 -164 214 -104 494 -5 602
214 35 71 38 82 38 166 0 79 -4 98 -28 148 -16 33 -49 76 -78 102 -70 63 -138
86 -284 96 -204 14 -182 -3 -432 338 -118 160 -218 292 -223 292 -5 0 -15 3
-24 6 -10 4 -27 -5 -45 -24z m169 -180 c63 -86 144 -197 180 -247 154 -209
164 -225 141 -225 -15 0 -76 75 -239 293 -246 329 -235 314 -227 327 14 23 36
1 145 -148z m428 -474 c5 -7 13 -28 17 -46 7 -36 37 -56 97 -67 45 -9 69 -32
47 -46 -20 -12 -33 -11 -79 7 -40 16 -70 14 -70 -5 0 -21 55 -46 110 -51 47
-4 55 -8 58 -27 5 -37 -26 -83 -71 -104 -52 -23 -70 -23 -114 -2 -38 18 -68
71 -58 103 7 21 -17 85 -42 112 -15 17 -15 18 1 18 53 0 106 62 86 101 -12 21
2 26 18 7z m303 -35 c63 -28 122 -84 150 -141 35 -72 33 -188 -4 -264 -43 -88
-107 -152 -195 -195 -75 -37 -78 -38 -191 -38 -110 0 -119 2 -170 30 -58 32
-114 90 -138 145 -10 22 -16 65 -17 115 -1 70 3 88 31 145 17 36 40 76 51 89
l19 24 27 -45 c14 -25 26 -60 26 -79 0 -49 31 -100 76 -127 79 -46 199 -9 239
74 13 29 16 53 13 106 -6 82 -27 110 -93 127 -48 12 -60 24 -51 48 9 23 165
14 227 -14z M10390 5910 c-90 -12 -188 -35 -300 -72 -592 -193 -976 -776 -911
-1381 61 -561 434 -1042 975 -1259 197 -78 457 -117 663 -97 597 55 1073 456
1211 1020 47 190 52 466 11 656 -122 566 -575 1000 -1163 1114 -115 23 -382
33 -486 19z m422 -55 c541 -82 983 -448 1147 -950 51 -157 64 -271 58 -484 -7
-217 -24 -308 -90 -470 -124 -303 -351 -541 -651 -681 -203 -95 -332 -124
-561 -124 -210 0 -296 11 -455 64 -335 110 -613 319 -803 605 -81 123 -128
220 -170 350 -57 178 -62 213 -62 420 0 173 3 200 27 296 61 241 160 419 326
588 97 98 159 146 277 214 146 84 312 143 480 171 111 19 353 19 477 1z M7870
4862 c-54 -55 -27 -142 46 -142 47 0 74 29 74 79 0 45 -23 77 -62 87 -22 5
-33 0 -58 -24z m76 -47 c7 -27 -10 -55 -32 -55 -23 0 -40 46 -24 65 20 24 49
18 56 -10z"/>
</g>
</svg>
